<svg width="238" height="208" viewBox="0 0 238 208" fill="none" xmlns="http://www.w3.org/2000/svg">
<g opacity="0.270089">
<path fill-rule="evenodd" clip-rule="evenodd" d="M6.61111 6.36111C6.61111 8.18661 5.13105 9.66667 3.30556 9.66667C1.48006 9.66667 0 8.18661 0 6.36111C0 4.53562 1.48006 3.05556 3.30556 3.05556C5.13105 3.05556 6.61111 4.53562 6.61111 6.36111" fill="white"/>
<path fill-rule="evenodd" clip-rule="evenodd" d="M39.6668 6.36111C39.6668 8.18661 38.1867 9.66667 36.3612 9.66667C34.5357 9.66667 33.0557 8.18661 33.0557 6.36111C33.0557 4.53562 34.5357 3.05556 36.3612 3.05556C38.1867 3.05556 39.6668 4.53562 39.6668 6.36111" fill="white"/>
<path fill-rule="evenodd" clip-rule="evenodd" d="M72.7224 6.36111C72.7224 8.18661 71.2424 9.66667 69.4169 9.66667C67.5914 9.66667 66.1113 8.18661 66.1113 6.36111C66.1113 4.53562 67.5914 3.05556 69.4169 3.05556C71.2424 3.05556 72.7224 4.53562 72.7224 6.36111" fill="white"/>
<path fill-rule="evenodd" clip-rule="evenodd" d="M105.778 6.36111C105.778 8.18661 104.298 9.66667 102.472 9.66667C100.647 9.66667 99.1665 8.18661 99.1665 6.36111C99.1665 4.53562 100.647 3.05556 102.472 3.05556C104.298 3.05556 105.778 4.53562 105.778 6.36111" fill="white"/>
<path fill-rule="evenodd" clip-rule="evenodd" d="M138.833 6.36111C138.833 8.18661 137.353 9.66667 135.528 9.66667C133.702 9.66667 132.222 8.18661 132.222 6.36111C132.222 4.53562 133.702 3.05556 135.528 3.05556C137.353 3.05556 138.833 4.53562 138.833 6.36111" fill="white"/>
<path fill-rule="evenodd" clip-rule="evenodd" d="M171.889 6.36111C171.889 8.18661 170.409 9.66667 168.583 9.66667C166.758 9.66667 165.278 8.18661 165.278 6.36111C165.278 4.53562 166.758 3.05556 168.583 3.05556C170.409 3.05556 171.889 4.53562 171.889 6.36111" fill="white"/>
<path fill-rule="evenodd" clip-rule="evenodd" d="M204.945 6.36111C204.945 8.18661 203.465 9.66667 201.639 9.66667C199.814 9.66667 198.333 8.18661 198.333 6.36111C198.333 4.53562 199.814 3.05556 201.639 3.05556C203.465 3.05556 204.945 4.53562 204.945 6.36111" fill="white"/>
<path fill-rule="evenodd" clip-rule="evenodd" d="M238 6.36111C238 8.18661 236.52 9.66667 234.694 9.66667C232.869 9.66667 231.389 8.18661 231.389 6.36111C231.389 4.53562 232.869 3.05556 234.694 3.05556C236.52 3.05556 238 4.53562 238 6.36111" fill="white"/>
<path fill-rule="evenodd" clip-rule="evenodd" d="M6.61111 39.4167C6.61111 41.2422 5.13105 42.7222 3.30556 42.7222C1.48006 42.7222 0 41.2422 0 39.4167C0 37.5912 1.48006 36.1111 3.30556 36.1111C5.13105 36.1111 6.61111 37.5912 6.61111 39.4167" fill="white"/>
<path fill-rule="evenodd" clip-rule="evenodd" d="M39.6668 39.4167C39.6668 41.2422 38.1867 42.7222 36.3612 42.7222C34.5357 42.7222 33.0557 41.2422 33.0557 39.4167C33.0557 37.5912 34.5357 36.1111 36.3612 36.1111C38.1867 36.1111 39.6668 37.5912 39.6668 39.4167" fill="white"/>
<path fill-rule="evenodd" clip-rule="evenodd" d="M72.7224 39.4167C72.7224 41.2422 71.2424 42.7222 69.4169 42.7222C67.5914 42.7222 66.1113 41.2422 66.1113 39.4167C66.1113 37.5912 67.5914 36.1111 69.4169 36.1111C71.2424 36.1111 72.7224 37.5912 72.7224 39.4167" fill="white"/>
<path fill-rule="evenodd" clip-rule="evenodd" d="M105.778 39.4167C105.778 41.2422 104.298 42.7222 102.472 42.7222C100.647 42.7222 99.1665 41.2422 99.1665 39.4167C99.1665 37.5912 100.647 36.1111 102.472 36.1111C104.298 36.1111 105.778 37.5912 105.778 39.4167" fill="white"/>
<path fill-rule="evenodd" clip-rule="evenodd" d="M138.833 39.4167C138.833 41.2422 137.353 42.7222 135.528 42.7222C133.702 42.7222 132.222 41.2422 132.222 39.4167C132.222 37.5912 133.702 36.1111 135.528 36.1111C137.353 36.1111 138.833 37.5912 138.833 39.4167" fill="white"/>
<path fill-rule="evenodd" clip-rule="evenodd" d="M171.889 39.4167C171.889 41.2422 170.409 42.7222 168.583 42.7222C166.758 42.7222 165.278 41.2422 165.278 39.4167C165.278 37.5912 166.758 36.1111 168.583 36.1111C170.409 36.1111 171.889 37.5912 171.889 39.4167" fill="white"/>
<path fill-rule="evenodd" clip-rule="evenodd" d="M204.945 39.4167C204.945 41.2422 203.465 42.7222 201.639 42.7222C199.814 42.7222 198.333 41.2422 198.333 39.4167C198.333 37.5912 199.814 36.1111 201.639 36.1111C203.465 36.1111 204.945 37.5912 204.945 39.4167" fill="white"/>
<path fill-rule="evenodd" clip-rule="evenodd" d="M238 39.4167C238 41.2422 236.52 42.7222 234.694 42.7222C232.869 42.7222 231.389 41.2422 231.389 39.4167C231.389 37.5912 232.869 36.1111 234.694 36.1111C236.52 36.1111 238 37.5912 238 39.4167" fill="white"/>
<path fill-rule="evenodd" clip-rule="evenodd" d="M6.61111 72.4722C6.61111 74.2977 5.13105 75.7778 3.30556 75.7778C1.48006 75.7778 0 74.2977 0 72.4722C0 70.6467 1.48006 69.1667 3.30556 69.1667C5.13105 69.1667 6.61111 70.6467 6.61111 72.4722" fill="white"/>
<path fill-rule="evenodd" clip-rule="evenodd" d="M39.6668 72.4722C39.6668 74.2977 38.1867 75.7778 36.3612 75.7778C34.5357 75.7778 33.0557 74.2977 33.0557 72.4722C33.0557 70.6467 34.5357 69.1667 36.3612 69.1667C38.1867 69.1667 39.6668 70.6467 39.6668 72.4722" fill="white"/>
<path fill-rule="evenodd" clip-rule="evenodd" d="M72.7224 72.4722C72.7224 74.2977 71.2424 75.7778 69.4169 75.7778C67.5914 75.7778 66.1113 74.2977 66.1113 72.4722C66.1113 70.6467 67.5914 69.1667 69.4169 69.1667C71.2424 69.1667 72.7224 70.6467 72.7224 72.4722" fill="white"/>
<path fill-rule="evenodd" clip-rule="evenodd" d="M105.778 72.4722C105.778 74.2977 104.298 75.7778 102.472 75.7778C100.647 75.7778 99.1665 74.2977 99.1665 72.4722C99.1665 70.6467 100.647 69.1667 102.472 69.1667C104.298 69.1667 105.778 70.6467 105.778 72.4722" fill="white"/>
<path fill-rule="evenodd" clip-rule="evenodd" d="M138.833 72.4722C138.833 74.2977 137.353 75.7778 135.528 75.7778C133.702 75.7778 132.222 74.2977 132.222 72.4722C132.222 70.6467 133.702 69.1667 135.528 69.1667C137.353 69.1667 138.833 70.6467 138.833 72.4722" fill="white"/>
<path fill-rule="evenodd" clip-rule="evenodd" d="M171.889 72.4722C171.889 74.2977 170.409 75.7778 168.583 75.7778C166.758 75.7778 165.278 74.2977 165.278 72.4722C165.278 70.6467 166.758 69.1667 168.583 69.1667C170.409 69.1667 171.889 70.6467 171.889 72.4722" fill="white"/>
<path fill-rule="evenodd" clip-rule="evenodd" d="M204.945 72.4722C204.945 74.2977 203.465 75.7778 201.639 75.7778C199.814 75.7778 198.333 74.2977 198.333 72.4722C198.333 70.6467 199.814 69.1667 201.639 69.1667C203.465 69.1667 204.945 70.6467 204.945 72.4722" fill="white"/>
<path fill-rule="evenodd" clip-rule="evenodd" d="M238 72.4722C238 74.2977 236.52 75.7778 234.694 75.7778C232.869 75.7778 231.389 74.2977 231.389 72.4722C231.389 70.6467 232.869 69.1667 234.694 69.1667C236.52 69.1667 238 70.6467 238 72.4722" fill="white"/>
<path fill-rule="evenodd" clip-rule="evenodd" d="M6.61111 105.528C6.61111 107.353 5.13105 108.833 3.30556 108.833C1.48006 108.833 0 107.353 0 105.528C0 103.702 1.48006 102.222 3.30556 102.222C5.13105 102.222 6.61111 103.702 6.61111 105.528" fill="white"/>
<path fill-rule="evenodd" clip-rule="evenodd" d="M39.6668 105.528C39.6668 107.353 38.1867 108.833 36.3612 108.833C34.5357 108.833 33.0557 107.353 33.0557 105.528C33.0557 103.702 34.5357 102.222 36.3612 102.222C38.1867 102.222 39.6668 103.702 39.6668 105.528" fill="white"/>
<path fill-rule="evenodd" clip-rule="evenodd" d="M72.7224 105.528C72.7224 107.353 71.2424 108.833 69.4169 108.833C67.5914 108.833 66.1113 107.353 66.1113 105.528C66.1113 103.702 67.5914 102.222 69.4169 102.222C71.2424 102.222 72.7224 103.702 72.7224 105.528" fill="white"/>
<path fill-rule="evenodd" clip-rule="evenodd" d="M105.778 105.528C105.778 107.353 104.298 108.833 102.472 108.833C100.647 108.833 99.1665 107.353 99.1665 105.528C99.1665 103.702 100.647 102.222 102.472 102.222C104.298 102.222 105.778 103.702 105.778 105.528" fill="white"/>
<path fill-rule="evenodd" clip-rule="evenodd" d="M138.833 105.528C138.833 107.353 137.353 108.833 135.528 108.833C133.702 108.833 132.222 107.353 132.222 105.528C132.222 103.702 133.702 102.222 135.528 102.222C137.353 102.222 138.833 103.702 138.833 105.528" fill="white"/>
<path fill-rule="evenodd" clip-rule="evenodd" d="M171.889 105.528C171.889 107.353 170.409 108.833 168.583 108.833C166.758 108.833 165.278 107.353 165.278 105.528C165.278 103.702 166.758 102.222 168.583 102.222C170.409 102.222 171.889 103.702 171.889 105.528" fill="white"/>
<path fill-rule="evenodd" clip-rule="evenodd" d="M204.945 105.528C204.945 107.353 203.465 108.833 201.639 108.833C199.814 108.833 198.333 107.353 198.333 105.528C198.333 103.702 199.814 102.222 201.639 102.222C203.465 102.222 204.945 103.702 204.945 105.528" fill="white"/>
<path fill-rule="evenodd" clip-rule="evenodd" d="M238 105.528C238 107.353 236.52 108.833 234.694 108.833C232.869 108.833 231.389 107.353 231.389 105.528C231.389 103.702 232.869 102.222 234.694 102.222C236.52 102.222 238 103.702 238 105.528" fill="white"/>
<path fill-rule="evenodd" clip-rule="evenodd" d="M6.61111 138.583C6.61111 140.409 5.13105 141.889 3.30556 141.889C1.48006 141.889 0 140.409 0 138.583C0 136.758 1.48006 135.278 3.30556 135.278C5.13105 135.278 6.61111 136.758 6.61111 138.583" fill="white"/>
<path fill-rule="evenodd" clip-rule="evenodd" d="M39.6668 138.583C39.6668 140.409 38.1867 141.889 36.3612 141.889C34.5357 141.889 33.0557 140.409 33.0557 138.583C33.0557 136.758 34.5357 135.278 36.3612 135.278C38.1867 135.278 39.6668 136.758 39.6668 138.583" fill="white"/>
<path fill-rule="evenodd" clip-rule="evenodd" d="M72.7224 138.583C72.7224 140.409 71.2424 141.889 69.4169 141.889C67.5914 141.889 66.1113 140.409 66.1113 138.583C66.1113 136.758 67.5914 135.278 69.4169 135.278C71.2424 135.278 72.7224 136.758 72.7224 138.583" fill="white"/>
<path fill-rule="evenodd" clip-rule="evenodd" d="M105.778 138.583C105.778 140.409 104.298 141.889 102.472 141.889C100.647 141.889 99.1665 140.409 99.1665 138.583C99.1665 136.758 100.647 135.278 102.472 135.278C104.298 135.278 105.778 136.758 105.778 138.583" fill="white"/>
<path fill-rule="evenodd" clip-rule="evenodd" d="M138.833 138.583C138.833 140.409 137.353 141.889 135.528 141.889C133.702 141.889 132.222 140.409 132.222 138.583C132.222 136.758 133.702 135.278 135.528 135.278C137.353 135.278 138.833 136.758 138.833 138.583" fill="white"/>
<path fill-rule="evenodd" clip-rule="evenodd" d="M171.889 138.583C171.889 140.409 170.409 141.889 168.583 141.889C166.758 141.889 165.278 140.409 165.278 138.583C165.278 136.758 166.758 135.278 168.583 135.278C170.409 135.278 171.889 136.758 171.889 138.583" fill="white"/>
<path fill-rule="evenodd" clip-rule="evenodd" d="M204.945 138.583C204.945 140.409 203.465 141.889 201.639 141.889C199.814 141.889 198.333 140.409 198.333 138.583C198.333 136.758 199.814 135.278 201.639 135.278C203.465 135.278 204.945 136.758 204.945 138.583" fill="white"/>
<path fill-rule="evenodd" clip-rule="evenodd" d="M238 138.583C238 140.409 236.52 141.889 234.694 141.889C232.869 141.889 231.389 140.409 231.389 138.583C231.389 136.758 232.869 135.278 234.694 135.278C236.52 135.278 238 136.758 238 138.583" fill="white"/>
<path fill-rule="evenodd" clip-rule="evenodd" d="M6.61111 171.639C6.61111 173.464 5.13105 174.944 3.30556 174.944C1.48006 174.944 0 173.464 0 171.639C0 169.813 1.48006 168.333 3.30556 168.333C5.13105 168.333 6.61111 169.813 6.61111 171.639" fill="white"/>
<path fill-rule="evenodd" clip-rule="evenodd" d="M39.6668 171.639C39.6668 173.464 38.1867 174.944 36.3612 174.944C34.5357 174.944 33.0557 173.464 33.0557 171.639C33.0557 169.813 34.5357 168.333 36.3612 168.333C38.1867 168.333 39.6668 169.813 39.6668 171.639" fill="white"/>
<path fill-rule="evenodd" clip-rule="evenodd" d="M72.7224 171.639C72.7224 173.464 71.2424 174.944 69.4169 174.944C67.5914 174.944 66.1113 173.464 66.1113 171.639C66.1113 169.813 67.5914 168.333 69.4169 168.333C71.2424 168.333 72.7224 169.813 72.7224 171.639" fill="white"/>
<path fill-rule="evenodd" clip-rule="evenodd" d="M105.778 171.639C105.778 173.464 104.298 174.944 102.472 174.944C100.647 174.944 99.1665 173.464 99.1665 171.639C99.1665 169.813 100.647 168.333 102.472 168.333C104.298 168.333 105.778 169.813 105.778 171.639" fill="white"/>
<path fill-rule="evenodd" clip-rule="evenodd" d="M138.833 171.639C138.833 173.464 137.353 174.944 135.528 174.944C133.702 174.944 132.222 173.464 132.222 171.639C132.222 169.813 133.702 168.333 135.528 168.333C137.353 168.333 138.833 169.813 138.833 171.639" fill="white"/>
<path fill-rule="evenodd" clip-rule="evenodd" d="M171.889 171.639C171.889 173.464 170.409 174.944 168.583 174.944C166.758 174.944 165.278 173.464 165.278 171.639C165.278 169.813 166.758 168.333 168.583 168.333C170.409 168.333 171.889 169.813 171.889 171.639" fill="white"/>
<path fill-rule="evenodd" clip-rule="evenodd" d="M204.945 171.639C204.945 173.464 203.465 174.944 201.639 174.944C199.814 174.944 198.333 173.464 198.333 171.639C198.333 169.813 199.814 168.333 201.639 168.333C203.465 168.333 204.945 169.813 204.945 171.639" fill="white"/>
<path fill-rule="evenodd" clip-rule="evenodd" d="M238 171.639C238 173.464 236.52 174.944 234.694 174.944C232.869 174.944 231.389 173.464 231.389 171.639C231.389 169.813 232.869 168.333 234.694 168.333C236.52 168.333 238 169.813 238 171.639" fill="white"/>
<path fill-rule="evenodd" clip-rule="evenodd" d="M6.61111 204.694C6.61111 206.52 5.13105 208 3.30556 208C1.48006 208 0 206.52 0 204.694C0 202.869 1.48006 201.389 3.30556 201.389C5.13105 201.389 6.61111 202.869 6.61111 204.694" fill="white"/>
<path fill-rule="evenodd" clip-rule="evenodd" d="M39.6668 204.694C39.6668 206.52 38.1867 208 36.3612 208C34.5357 208 33.0557 206.52 33.0557 204.694C33.0557 202.869 34.5357 201.389 36.3612 201.389C38.1867 201.389 39.6668 202.869 39.6668 204.694" fill="white"/>
<path fill-rule="evenodd" clip-rule="evenodd" d="M72.7224 204.694C72.7224 206.52 71.2424 208 69.4169 208C67.5914 208 66.1113 206.52 66.1113 204.694C66.1113 202.869 67.5914 201.389 69.4169 201.389C71.2424 201.389 72.7224 202.869 72.7224 204.694" fill="white"/>
<path fill-rule="evenodd" clip-rule="evenodd" d="M105.778 204.694C105.778 206.52 104.298 208 102.472 208C100.647 208 99.1665 206.52 99.1665 204.694C99.1665 202.869 100.647 201.389 102.472 201.389C104.298 201.389 105.778 202.869 105.778 204.694" fill="white"/>
<path fill-rule="evenodd" clip-rule="evenodd" d="M138.833 204.694C138.833 206.52 137.353 208 135.528 208C133.702 208 132.222 206.52 132.222 204.694C132.222 202.869 133.702 201.389 135.528 201.389C137.353 201.389 138.833 202.869 138.833 204.694" fill="white"/>
<path fill-rule="evenodd" clip-rule="evenodd" d="M171.889 204.694C171.889 206.52 170.409 208 168.583 208C166.758 208 165.278 206.52 165.278 204.694C165.278 202.869 166.758 201.389 168.583 201.389C170.409 201.389 171.889 202.869 171.889 204.694" fill="white"/>
<path fill-rule="evenodd" clip-rule="evenodd" d="M204.945 204.694C204.945 206.52 203.465 208 201.639 208C199.814 208 198.333 206.52 198.333 204.694C198.333 202.869 199.814 201.389 201.639 201.389C203.465 201.389 204.945 202.869 204.945 204.694" fill="white"/>
<path fill-rule="evenodd" clip-rule="evenodd" d="M238 204.694C238 206.52 236.52 208 234.694 208C232.869 208 231.389 206.52 231.389 204.694C231.389 202.869 232.869 201.389 234.694 201.389C236.52 201.389 238 202.869 238 204.694" fill="white"/>
</g>
</svg>
